<svg width="512" height="512" viewBox="0 0 512 512" fill="none" xmlns="http://www.w3.org/2000/svg">
  <defs>
    <linearGradient id="bg" x1="0%" y1="0%" x2="100%" y2="100%">
      <stop offset="0%" style="stop-color:#6366f1"/>
      <stop offset="100%" style="stop-color:#4f46e5"/>
    </linearGradient>
    <linearGradient id="folder" x1="0%" y1="0%" x2="100%" y2="100%">
      <stop offset="0%" style="stop-color:#818cf8"/>
      <stop offset="100%" style="stop-color:#6366f1"/>
    </linearGradient>
    <linearGradient id="lock" x1="0%" y1="0%" x2="100%" y2="100%">
      <stop offset="0%" style="stop-color:#4f46e5"/>
      <stop offset="100%" style="stop-color:#3730a3"/>
    </linearGradient>
  </defs>
  <!-- Rounded square background -->
  <rect width="512" height="512" rx="96" fill="url(#bg)"/>
  <!-- Document -->
  <path d="M168 108c-8 0-15 7-15 15v266c0 8 7 15 15 15h188c8 0 15-7 15-15V168l-53-60H168z" fill="white" fill-opacity="0.95"/>
  <!-- Corner fold -->
  <path d="M318 108v46c0 8 7 15 15 15h44L318 108z" fill="white" fill-opacity="0.6"/>
  <!-- Text lines on document -->
  <rect x="192" y="190" width="130" height="8" rx="4" fill="#c7d2fe"/>
  <rect x="192" y="218" width="95" height="8" rx="4" fill="#c7d2fe"/>
  <!-- Folder -->
  <path d="M138 230c-9 0-16 7-16 16v194c0 9 7 16 16 16h275c9 0 16-7 16-16V290c0-9-7-16-16-16H283l-9-27c-2-7-8-11-15-11H138z" fill="url(#folder)"/>
  <!-- Lock shackle -->
  <path d="M278 300c-17 0-31 14-31 31v13c0 3 2 5 5 5s5-2 5-5v-13c0-11 9-20 21-20s20 9 20 20v13c0 3 3 5 5 5 3 0 6-2 6-5v-13c0-17-14-31-31-31z" fill="#312e81"/>
  <!-- Lock body -->
  <path d="M249 349c-4 0-8 4-8 8v52c0 4 4 8 8 8h58c4 0 8-4 8-8v-52c0-4-4-8-8-8h-58z" fill="url(#lock)"/>
  <!-- Keyhole -->
  <circle cx="278" cy="370" r="7" fill="#e0e7ff"/>
  <path d="M274 376l-3 12c0 1 1 2 2 2h11c1 0 2-1 2-2l-4-12" fill="#e0e7ff"/>
</svg>